<svg id="visual" viewBox="0 0 960 540" width="960" height="540" xmlns="http://www.w3.org/2000/svg" xmlns:xlink="http://www.w3.org/1999/xlink" version="1.1"><path d="M0 23L13.3 23C26.7 23 53.3 23 80 20.2C106.7 17.3 133.3 11.7 160 13.3C186.7 15 213.3 24 240 28.5C266.7 33 293.3 33 320 35.8C346.7 38.7 373.3 44.3 400 42.7C426.7 41 453.3 32 480 35.5C506.7 39 533.3 55 560 64.8C586.7 74.7 613.3 78.3 640 79.3C666.7 80.3 693.3 78.7 720 71.5C746.7 64.3 773.3 51.7 800 45.3C826.7 39 853.3 39 880 39.8C906.7 40.7 933.3 42.3 946.7 43.2L960 44L960 0L946.7 0C933.3 0 906.7 0 880 0C853.3 0 826.7 0 800 0C773.3 0 746.7 0 720 0C693.3 0 666.7 0 640 0C613.3 0 586.7 0 560 0C533.3 0 506.7 0 480 0C453.3 0 426.7 0 400 0C373.3 0 346.7 0 320 0C293.3 0 266.7 0 240 0C213.3 0 186.7 0 160 0C133.3 0 106.7 0 80 0C53.3 0 26.7 0 13.3 0L0 0Z" fill="#ff96ad"></path><path d="M0 131L13.3 131C26.7 131 53.3 131 80 123.7C106.7 116.3 133.3 101.7 160 91.7C186.7 81.7 213.3 76.3 240 79.2C266.7 82 293.3 93 320 109.2C346.7 125.3 373.3 146.7 400 136.7C426.7 126.7 453.3 85.3 480 79.2C506.7 73 533.3 102 560 114.7C586.7 127.3 613.3 123.7 640 119.2C666.7 114.7 693.3 109.3 720 113.8C746.7 118.3 773.3 132.7 800 141.7C826.7 150.7 853.3 154.3 880 141.7C906.7 129 933.3 100 946.7 85.5L960 71L960 42L946.7 41.2C933.3 40.3 906.7 38.7 880 37.8C853.3 37 826.7 37 800 43.3C773.3 49.7 746.7 62.3 720 69.5C693.3 76.7 666.7 78.3 640 77.3C613.3 76.3 586.7 72.7 560 62.8C533.3 53 506.7 37 480 33.5C453.3 30 426.7 39 400 40.7C373.3 42.3 346.7 36.7 320 33.8C293.3 31 266.7 31 240 26.5C213.3 22 186.7 13 160 11.3C133.3 9.7 106.7 15.3 80 18.2C53.3 21 26.7 21 13.3 21L0 21Z" fill="#dd85b3"></path><path d="M0 174L13.3 181.2C26.7 188.3 53.3 202.7 80 193.7C106.7 184.7 133.3 152.3 160 138.8C186.7 125.3 213.3 130.7 240 140.5C266.7 150.3 293.3 164.7 320 178.2C346.7 191.7 373.3 204.3 400 187.3C426.7 170.3 453.3 123.7 480 123.7C506.7 123.7 533.3 170.3 560 184.7C586.7 199 613.3 181 640 177.3C666.7 173.7 693.3 184.3 720 196C746.7 207.7 773.3 220.3 800 222.2C826.7 224 853.3 215 880 197C906.7 179 933.3 152 946.7 138.5L960 125L960 69L946.7 83.5C933.3 98 906.7 127 880 139.7C853.3 152.3 826.7 148.7 800 139.7C773.3 130.7 746.7 116.3 720 111.8C693.3 107.3 666.7 112.7 640 117.2C613.3 121.7 586.7 125.3 560 112.7C533.3 100 506.7 71 480 77.2C453.3 83.3 426.7 124.7 400 134.7C373.3 144.7 346.7 123.3 320 107.2C293.3 91 266.7 80 240 77.2C213.3 74.3 186.7 79.7 160 89.7C133.3 99.7 106.7 114.3 80 121.7C53.3 129 26.7 129 13.3 129L0 129Z" fill="#b579b4"></path><path d="M0 417L13.3 406.2C26.7 395.3 53.3 373.7 80 352C106.7 330.3 133.3 308.7 160 298.8C186.7 289 213.3 291 240 320.7C266.7 350.3 293.3 407.7 320 431C346.7 454.3 373.3 443.7 400 414C426.7 384.3 453.3 335.7 480 324.8C506.7 314 533.3 341 560 350C586.7 359 613.3 350 640 334.7C666.7 319.3 693.3 297.7 720 306.7C746.7 315.7 773.3 355.3 800 372.5C826.7 389.7 853.3 384.3 880 366.3C906.7 348.3 933.3 317.7 946.7 302.3L960 287L960 123L946.7 136.5C933.3 150 906.7 177 880 195C853.3 213 826.7 222 800 220.2C773.3 218.3 746.7 205.7 720 194C693.3 182.3 666.7 171.7 640 175.3C613.3 179 586.7 197 560 182.7C533.3 168.3 506.7 121.7 480 121.7C453.3 121.7 426.7 168.3 400 185.3C373.3 202.3 346.7 189.7 320 176.2C293.3 162.7 266.7 148.3 240 138.5C213.3 128.7 186.7 123.3 160 136.8C133.3 150.3 106.7 182.7 80 191.7C53.3 200.7 26.7 186.3 13.3 179.2L0 172Z" fill="#866fae"></path><path d="M0 498L13.3 500.7C26.7 503.3 53.3 508.7 80 492.5C106.7 476.3 133.3 438.7 160 436.8C186.7 435 213.3 469 240 488.7C266.7 508.3 293.3 513.7 320 513.7C346.7 513.7 373.3 508.3 400 485C426.7 461.7 453.3 420.3 480 415C506.7 409.7 533.3 440.3 560 457.5C586.7 474.7 613.3 478.3 640 471.2C666.7 464 693.3 446 720 443.2C746.7 440.3 773.3 452.7 800 456.2C826.7 459.7 853.3 454.3 880 454.3C906.7 454.3 933.3 459.7 946.7 462.3L960 465L960 285L946.7 300.3C933.3 315.7 906.7 346.3 880 364.3C853.3 382.3 826.7 387.7 800 370.5C773.3 353.3 746.7 313.7 720 304.7C693.3 295.7 666.7 317.3 640 332.7C613.3 348 586.7 357 560 348C533.3 339 506.7 312 480 322.8C453.3 333.7 426.7 382.3 400 412C373.3 441.7 346.7 452.3 320 429C293.3 405.7 266.7 348.3 240 318.7C213.3 289 186.7 287 160 296.8C133.3 306.7 106.7 328.3 80 350C53.3 371.7 26.7 393.3 13.3 404.2L0 415Z" fill="#5265a1"></path><path d="M0 541L13.3 541C26.7 541 53.3 541 80 541C106.7 541 133.3 541 160 541C186.7 541 213.3 541 240 541C266.7 541 293.3 541 320 541C346.7 541 373.3 541 400 541C426.7 541 453.3 541 480 541C506.7 541 533.3 541 560 541C586.7 541 613.3 541 640 541C666.7 541 693.3 541 720 541C746.7 541 773.3 541 800 541C826.7 541 853.3 541 880 541C906.7 541 933.3 541 946.7 541L960 541L960 463L946.7 460.3C933.3 457.7 906.7 452.3 880 452.3C853.3 452.3 826.7 457.7 800 454.2C773.3 450.7 746.7 438.3 720 441.2C693.3 444 666.7 462 640 469.2C613.3 476.3 586.7 472.7 560 455.5C533.3 438.3 506.7 407.7 480 413C453.3 418.3 426.7 459.7 400 483C373.3 506.3 346.7 511.7 320 511.7C293.3 511.7 266.7 506.3 240 486.7C213.3 467 186.7 433 160 434.8C133.3 436.7 106.7 474.3 80 490.5C53.3 506.7 26.7 501.3 13.3 498.7L0 496Z" fill="#005a8d"></path></svg>